<mxfile host="app.diagrams.net" modified="2023-08-20T06:23:32.046Z" agent="Mozilla/5.0 (Windows NT 10.0; Win64; x64) AppleWebKit/537.36 (KHTML, like Gecko) Chrome/113.0.0.0 Safari/537.36" version="21.6.8" etag="m9aQ-cC2_5CnjdNHCC7R" type="github">
  <diagram name="第 1 页" id="S2K1QVHzalOkHo30DKLK">
    <mxGraphModel>
      <root>
        <mxCell id="0" />
        <mxCell id="1" parent="0" />
      </root>
    </mxGraphModel>
  </diagram>
</mxfile>
